<svg width="17" height="12" viewBox="0 0 17 12" fill="none" xmlns="http://www.w3.org/2000/svg">
<path fill-rule="evenodd" clip-rule="evenodd" d="M15.3928 12C15.3928 12 16.3714 12 16.3714 11C16.3714 10 15.3928 7 11.4785 7C7.56423 7 6.58566 10 6.58566 11C6.58566 12 7.56423 12 7.56423 12H15.3928ZM7.58576 11H15.3713C15.3759 10.9995 15.3804 10.9988 15.385 10.998L15.3928 10.996C15.3908 10.732 15.2294 9.966 14.6491 9.276C14.1089 8.629 13.1597 8 11.4785 8C9.79831 8 8.8491 8.63 8.30795 9.276C7.72765 9.966 7.56521 10.733 7.56423 10.996C7.5714 10.9974 7.57857 10.9987 7.58576 11ZM11.4785 5C11.9976 5 12.4954 4.78929 12.8624 4.41421C13.2295 4.03914 13.4357 3.53043 13.4357 3C13.4357 2.46957 13.2295 1.96086 12.8624 1.58579C12.4954 1.21071 11.9976 1 11.4785 1C10.9595 1 10.4616 1.21071 10.0946 1.58579C9.72758 1.96086 9.52138 2.46957 9.52138 3C9.52138 3.53043 9.72758 4.03914 10.0946 4.41421C10.4616 4.78929 10.9595 5 11.4785 5ZM14.4142 3C14.4142 3.39397 14.3383 3.78407 14.1908 4.14805C14.0432 4.51203 13.827 4.84274 13.5544 5.12132C13.2818 5.3999 12.9581 5.62087 12.602 5.77164C12.2458 5.9224 11.864 6 11.4785 6C11.093 6 10.7112 5.9224 10.3551 5.77164C9.99889 5.62087 9.67526 5.3999 9.40266 5.12132C9.13005 4.84274 8.91381 4.51203 8.76627 4.14805C8.61874 3.78407 8.5428 3.39397 8.5428 3C8.5428 2.20435 8.8521 1.44129 9.40266 0.87868C9.95321 0.316071 10.6999 0 11.4785 0C12.2571 0 13.0038 0.316071 13.5544 0.87868C14.1049 1.44129 14.4142 2.20435 14.4142 3ZM7.5016 7.28C7.11016 7.15404 6.70665 7.07123 6.29796 7.033C6.06832 7.01068 5.83777 6.99967 5.60709 7C1.6928 7 0.714233 10 0.714233 11C0.714233 11.667 1.0401 12 1.6928 12H5.81846C5.67339 11.6878 5.60105 11.3455 5.60709 11C5.60709 9.99 5.97601 8.958 6.67373 8.096C6.91153 7.802 7.18846 7.527 7.5016 7.28ZM5.5288 8C3.89655 8.02 2.96984 8.64 2.43652 9.276C1.85231 9.97 1.6928 10.739 1.6928 11H4.62852C4.62852 9.955 4.9446 8.914 5.5288 8ZM2.18209 3.5C2.18209 2.70435 2.49139 1.94129 3.04194 1.37868C3.59249 0.816071 4.33921 0.5 5.1178 0.5C5.8964 0.5 6.64312 0.816071 7.19367 1.37868C7.74422 1.94129 8.05352 2.70435 8.05352 3.5C8.05352 4.29565 7.74422 5.05871 7.19367 5.62132C6.64312 6.18393 5.8964 6.5 5.1178 6.5C4.33921 6.5 3.59249 6.18393 3.04194 5.62132C2.49139 5.05871 2.18209 4.29565 2.18209 3.5ZM5.1178 1.5C4.59874 1.5 4.10093 1.71071 3.7339 2.08579C3.36686 2.46086 3.16066 2.96957 3.16066 3.5C3.16066 4.03043 3.36686 4.53914 3.7339 4.91421C4.10093 5.28929 4.59874 5.5 5.1178 5.5C5.63687 5.5 6.13468 5.28929 6.50171 4.91421C6.86875 4.53914 7.07495 4.03043 7.07495 3.5C7.07495 2.96957 6.86875 2.46086 6.50171 2.08579C6.13468 1.71071 5.63687 1.5 5.1178 1.5Z" fill="#6C757D"/>
</svg>
