<svg width="17" height="12" viewBox="0 0 17 12" fill="none" xmlns="http://www.w3.org/2000/svg">
<path fill-rule="evenodd" clip-rule="evenodd" d="M0.714233 2C0.714233 1.46957 0.920432 0.960859 1.28747 0.585786C1.6545 0.210714 2.15231 0 2.67138 0H14.4142C14.9333 0 15.4311 0.210714 15.7981 0.585786C16.1652 0.960859 16.3714 1.46957 16.3714 2V10C16.3714 10.5304 16.1652 11.0391 15.7981 11.4142C15.4311 11.7893 14.9333 12 14.4142 12H2.67138C2.15231 12 1.6545 11.7893 1.28747 11.4142C0.920432 11.0391 0.714233 10.5304 0.714233 10V2ZM2.67138 1C2.41184 1 2.16294 1.10536 1.97942 1.29289C1.7959 1.48043 1.6928 1.73478 1.6928 2V2.217L8.5428 6.417L15.3928 2.217V2C15.3928 1.73478 15.2897 1.48043 15.1062 1.29289C14.9227 1.10536 14.6738 1 14.4142 1H2.67138ZM15.3928 3.383L10.7368 6.238L15.3928 9.114V3.384V3.383ZM15.3595 10.261L9.78657 6.82L8.5428 7.583L7.29806 6.82L1.72608 10.26C1.78205 10.4724 1.90501 10.6601 2.0759 10.7938C2.2468 10.9276 2.4561 11.0001 2.67138 11H14.4142C14.6294 11.0001 14.8386 10.9278 15.0095 10.7942C15.1803 10.6607 15.3034 10.4732 15.3595 10.261ZM1.6928 9.114L6.34885 6.238L1.6928 3.383V9.113V9.114Z" fill="#6C757D"/>
</svg>
